<?xml version="1.0" encoding="UTF-8" standalone="no"?>
<svg
   xmlns:dc="http://purl.org/dc/elements/1.1/"
   xmlns:cc="http://creativecommons.org/ns#"
   xmlns:rdf="http://www.w3.org/1999/02/22-rdf-syntax-ns#"
   xmlns:svg="http://www.w3.org/2000/svg"
   xmlns="http://www.w3.org/2000/svg"
   height="278.32526"
   width="682.86688"
   version="1.1"
   viewBox="0 0 682.86688 278.32525"
   data-name="Layer 1"
   id="Layer_1">
  <metadata
     id="metadata33">
    <rdf:RDF>
      <cc:Work
         rdf:about="">
        <dc:format>image/svg+xml</dc:format>
        <dc:type
           rdf:resource="http://purl.org/dc/dcmitype/StillImage" />
        <dc:title>WS_liggend</dc:title>
      </cc:Work>
    </rdf:RDF>
  </metadata>
  <defs
     id="defs4">
    <style
       id="style2">.cls-1{fill:#33474e;}.cls-2{fill:#e83b3b;}.cls-3{fill:#456272;}</style>
  </defs>
  <title
     id="title6">WS_liggend</title>
  <path
     style="fill:#33474e"
     id="path8"
     d="m 195.02056,135.5384 q 10.2,-29.44 20.45,-58.879996 4.39,-12.63 8.78,-25.25 c 1.87,-5.4 -2.68,-6.25 -6.71,-6.25 h -19.14 c -3.75,0 -8.14,-0.71 -11.08,2.14 -1.63,1.58 -2.12,3.8 -2.8,5.88 q -4.2,12.63 -8.36,25.3 -5.26,15.92 -10.5,31.819996 c -1.65,5 -2.73,11.1 -5.27,15.78 -1.06,-2 -1.54,-4.5 -2.24,-6.62 -1.7,-5.18 -3.41,-10.34 -5.12,-15.52 q -6.41,-19.349996 -12.81,-38.729996 c -1.87,-5.7 -3.86,-20 -11.92,-20 h -16.34 c -4.79,0 -12.129995,-1.39 -15.479995,3 -2.52,3.29 -3.32,8.86 -4.58,12.66 l -8.76,26.55 q -4.3,13.079996 -8.64,26.159996 c -1.31,4 -2.18,8.84 -4.2,12.58 -1.07,-2 -1.54,-4.5 -2.24,-6.62 -1.7,-5.18 -3.42,-10.34 -5.12,-15.52 q -6.41,-19.359996 -12.78,-38.739996 c -1.89,-5.69 -3.87,-20 -11.93,-20 h -15.93 c -3.52,0 -11.68,-1.54 -14.7200002,1 -2.56,2.09 -0.8,5.53 0.07,8 l 3.9300002,11.28 q 6.31,18.1 12.64,36.229996 9.57,27.51 19.12,55 v 0 a 262.53,262.53 0 0 0 -34.4900002,10.68 c -2.94,1.18 -8.08999998,2.15 -8.77999998,5.43 -0.28,1.32 0.24,4.34 2.15999998,4.34 5.24,0 11.3400002,-2.36 16.5100002,-3.39 q 10.2,-2 20.47,-3.79 19.13,-3.31 38.35,-5.92 c 35.369995,-4.84 70.939995,-8.29 106.559995,-10.77 2.58,-0.55 5.26,-1.24 6.29,-4.26 1.03,-3.02 4.61,-13.57 4.61,-13.57 z m 475.62,28.48 c -2.81,-1 -5.66,-1.85 -8.5,-2.71 q -9,-2.68 -18.15,-4.88 a 3.43,3.43 0 0 1 0,-1.06 V 5.7084035 c 0,-6.85 -8.54,-5.49999997 -13,-5.49999997 h -17.14 c -5.44,0 -5.83,4.66999997 -5.83,8.73999997 V 57.748404 c -20,-19.85 -52.51,-17.06 -72,1.77 -20.48,19.79 -24.27,53.569996 -11.48,78.599996 q -9.36,-0.89 -18.69,-1.66 c -0.14,-0.18 0,-1 0,-1.2 V 16.768404 c 0,-4.75 2,-16.56000047 -5.53,-16.56000047 h -15.85 c -4.42,0 -13.26,-1.66000003 -14.5,4.38999997 -1.06,5.2 -0.12,11.4400005 -0.12,16.7000005 V 133.9184 q -20.55,-1.24 -41.13,-2 c -0.8,0 -6.77,0 -6.77,-0.47 v -12.79 c 0,-8.7 0.57,-17.44 4.31,-25.439996 3.74,-8 10.31,-11.71 18.51,-13.94 5.92,-1.6 13.57,0.29 13.51,-7.95 q -0.07,-9.15 -0.13,-18.3 0,-3.51 -0.07,-7 c 0,-3.83 -7.66,-1.38 -10,-0.83 a 48.45,48.45 0 0 0 -16.37,7.34 c -3.12,2.14 -5.89,5.51 -9.18,7.3 l -0.35,0.14 c -1.05,-0.77 -0.24,-6.32 -0.24,-7.44 0,-3.42 -1.86,-6.46 -5.64,-6.46 h -16.53 c -4.52,0 -13.8,-1.55 -13.8,5.49 -0.22,2.21 0,4.54 0,6.76 V 141.6184 a 8.69,8.69 0 0 0 6.23,7 h 1.07 q 40.31,0.81 80.56,3 c 51.54,2.83 103.08,7.34 154.12,15 13.35,2 26.65,4.27 39.89,6.86 2.44,0.48 5,1.2 7.66,1.86 l 0.3,0.08 c 1.37,0.34 2.75,0.66 4.13,0.91 4.27,-0.29 5.85,-5.62 -9.29,-12.24 m -568.64,-18.5 6.57,-18.83 4.65,-13.26 c 0.69,-2 1.15,-4.51 2.29,-6.32 1,1.57 1.38,3.77 2,5.49 l 4,11.54 q 3.08,9 6.17,17.89 -12.82,1.59 -25.61,3.49 m 498.57,-14.67 c -11.52,13.09 -30.91,10.83 -40.94,-2.83 -9.25,-12.6 -8,-32.339996 2.14,-43.999996 10.88,-12.6 29.35,-12.36 39.58,0.88 9.8,12.66 9.93,33.819996 -0.78,45.999996 v 0"
     class="cls-1" />
  <path
     style="fill:#33474e"
     id="path10"
     d="m 79.740565,237.5984 -0.29,-0.17 c -8.86,-5.27 -19.29,-6.36 -28.23,-11.29 -3.25,-1.77 -4.79,-6.39 -1.43,-8.9 3.64,-2.69 9.46,-2.16 13.57,-1.13 a 61.83,61.83 0 0 1 10.56,3.79 c 3.26,1.48 5.51,0.09 7.13,-2.8 1.13,-2 3.55,-4.94 3.48,-7.38 -0.1,-3.25 -3.94,-4.28 -6.39,-5.32 -9,-3.79 -17.84,-6.29 -27.62,-4.45 -10.14,1.92 -20.2,8.58 -21.93,19.39 -1.86,11.62 4.95,18.86 14.89,23.49 5.52,2.59 26,5.61 24.22,14.74 -1.53,7.88 -13.8,5 -18.82,3.39 a 83.68,83.68 0 0 1 -9.55,-3.81 c -1.59,-0.74 -3.46,-2.07 -5.27,-2 -3.54,0.07 -7.59,6 -8.7,9.11 -2.06,5.71 11.1,10.16 14.7,11.34 11.48,3.8 23.72,3.83 34.83,-1.19 13.23,-6 18.55,-28.3 4.85,-36.78"
     class="cls-1" />
  <path
     style="fill:#33474e"
     id="path12"
     d="m 165.90056,208.0684 c -17.15,-14.41 -44.77,-10.74 -58.48,6.59 -12.219995,15.41 -10.479995,43.74 6.45,55.35 16.09,11 38.79,11.49 53.86,-1.86 2.82,-2.5 5.35,-5.16 2.23,-8.54 -1.8,-1.95 -3.51,-4.35 -5.58,-6 -3.42,-3.71 -7.2,1.43 -9.82,3.31 -4.69,3.35 -11.35,5.49 -17.13,4.39 a 24.73,24.73 0 0 1 -11.74,-6.3 c 2,-1.35 4.67,-2.07 6.88,-3 4,-1.66 8,-3.33 12,-5 4,-1.67 8.34,-3.45 12.51,-5.17 l 11,-4.58 c 2.58,-1 6.08,-2 8.23,-3.81 2.15,-1.81 -0.52,-8.06 -1.41,-10.5 -2,-5.35 -4.62,-11.13 -9.09,-14.87 m -13.07,19 -17.11,7 c -4.59,1.86 -10.29,5.36 -15.3,6 -1.54,-11 5,-19.07 15.39,-21.76 a 16.75,16.75 0 0 1 18.77,7.9 10.19,10.19 0 0 1 -1.75,0.87"
     class="cls-1" />
  <path
     style="fill:#33474e"
     id="path14"
     d="m 234.38056,199.8784 c -7.52,1.38 -13.71,6 -18.87,11.39 0,-5.56 0.69,-10.76 -6.33,-10.76 -3.87,0 -14.72,-2 -14.72,4.27 v 57.64 c 0,3.62 -1.81,13.59 3.07,14.94 2.15,0.59 4.86,0.15 7.05,0.15 2.41,0 5.46,0.5 7.85,-0.15 3.7,-1 3.08,-5.17 3.08,-8.1 v -12.66 c 0,-6.22 -0.24,-12.46 0.86,-18.59 0.86,-4.79 1.87,-10.91 5.91,-14.12 3.45,-2.75 8.08,-4.16 12.43,-4.77 5,-0.71 4.12,-5.08 4.09,-9.16 0,-3.17 1.15,-11.18 -4.42,-10.08"
     class="cls-1" />
  <path
     style="fill:#33474e"
     id="path16"
     d="m 327.46056,200.3584 c -4.75,0 -14.89,-2 -18,2.6 -2.47,3.61 -3.61,8.79 -5.2,12.8 -4.45,11.27 -8.38,23 -13.44,34 -4.05,-8.85 -7.21,-18.24 -10.79,-27.29 q -3.11,-7.91 -6.24,-15.79 c -1.61,-4.08 -3.62,-6.31 -8.4,-6.31 -2.94,0 -16.71,-1.89 -14.22,4.42 1.34,3.35 2.65,6.71 4,10.06 q 6.64,16.81 13.3,33.64 4.85,12.29 9.72,24.58 c 2.29,5.82 8.82,4.45 13.92,4.45 5.67,0 9.61,0.06 12,-5.83 q 11.63,-29.47 23.28,-58.94 c 1,-2.61 6.52,-12.38 0.17,-12.38"
     class="cls-1" />
  <path
     style="fill:#33474e"
     id="path18"
     d="m 413.22056,200.4884 h -10.69 c -1.43,0 -3,-0.16 -4.28,0.58 -2.5,1.46 -1.87,4 -2.1,6.34 -11.61,-8.9 -26.39,-10.75 -39.24,-3.2 -15.22,8.92 -21.07,26.07 -18.16,43 1.41,8.21 5.37,16.52 11.93,21.87 5,4.1 11.47,6.48 17.67,8.16 9.58,2.59 19.79,-0.89 27.79,-6.43 0.31,2.62 -0.24,5.62 3.11,6.55 1.92,0.52 4.33,0.15 6.28,0.15 3.75,0 11.84,1.48 11.84,-4.37 v -64.27 c 0,-3.21 0.58,-8.38 -4.19,-8.38 m -19.19,50.17 v 0 c 0,0.08 0,0.06 0,0 -5.44,10.87 -19.12,13.65 -28.07,5.19 -8.69,-8.23 -8.91,-23.75 -1.11,-32.66 5.39,-6.16 14.27,-7.31 21.3,-3.78 10.78,5.43 12.91,21.19 7.89,31.25"
     class="cls-1" />
  <path
     style="fill:#33474e"
     id="path20"
     d="m 479.56056,199.7684 a 45.34,45.34 0 0 0 -18.19,9.89 c -0.1,-2.19 0.59,-5.11 -0.58,-7.07 -1.59,-2.74 -5.25,-2.09 -7.91,-2.09 -4.19,0 -12.55,-1.62 -12.55,4.73 v 59.19 c 0,3.94 -1.71,13.1 4.44,13.1 3.8,0 13.72,1.85 16,-2.07 0.94,-1.58 0.58,-4 0.58,-5.75 v -22.39 c 0,-5.58 -0.45,-11.45 0.71,-16.95 1.77,-8.41 7.79,-16 17.45,-14.45 14,2.26 11.71,22.51 11.71,32.87 v 14.57 c 0,3.68 -1.83,14.16 4.18,14.16 3.19,0.42 6.67,0 9.87,0 3.2,0 7,-0.18 7,-4.5 v -39 c 0,-8.45 -2.23,-20 -8.21,-26.24 -5.98,-6.24 -15.75,-10.18 -24.51,-8"
     class="cls-1" />
  <path
     style="fill:#33474e"
     id="path22"
     d="m 565.43056,259.9784 a 7.93,7.93 0 0 1 -10.15,-6.6 c -0.73,-4.86 -0.44,-9.87 -0.44,-14.77 v -18 c 0,-1.66 -0.21,-3.79 2.16,-3.79 h 8.87 c 2.52,0 5.65,0.49 7.16,-2.08 1.35,-2.33 0.57,-6.52 0.57,-9.09 0,-7.07 -9.28,-5.11 -14.07,-5.11 -1.72,0 -4.69,0.51 -4.69,-2.1 v -8 c 0,-4.31 1.76,-13.18 -4.78,-13.18 -3.85,0 -14.86,-2 -16.26,3.09 -0.74,2.69 -0.14,6.19 -0.14,8.92 v 39.29 c 0,8.44 -0.91,17.84 0.52,26.18 1.13,6.76 3.57,14.75 9.66,18.61 6.09,3.86 14.43,6.07 21.61,4.34 4.15,-1 14,-3.94 14.08,-9.38 0,-3 -2.86,-6.53 -4.21,-9 -2.35,-4.42 -6.83,-0.13 -9.89,0.72"
     class="cls-1" />
  <path
     style="fill:#33474e"
     id="path24"
     d="m 647.80056,237.6584 c -0.19,-0.1 -0.35,-0.21 -0.49,-0.29 a 67.72,67.72 0 0 0 -13.79,-6 c -5,-1.61 -11,-2.73 -15.31,-5.88 -3,-2.24 -3.13,-6.8 0.27,-8.7 4.11,-2.3 9.66,-1.62 14,-0.41 a 66,66 0 0 1 9.83,3.68 c 3.54,1.63 5.55,-0.8 7.12,-3.58 1.18,-2.12 3.77,-5.24 3,-7.84 -0.77,-2.6 -4.77,-3.65 -7,-4.59 -9.19,-3.79 -18.18,-6.07 -28.12,-3.84 -9.74,2.19 -19.1,8.92 -20.65,19.35 -1.79,12 5.7,19.38 16.07,23.78 5.09,2.15 26.69,6 22.77,15.24 -3,7 -14.38,3.79 -19.61,2 a 87,87 0 0 1 -8.45,-3.44 c -1.6,-0.74 -3.47,-2.07 -5.29,-2 -3.53,0 -7.57,6 -8.69,9.1 -2.06,5.72 11.12,10.16 14.71,11.34 11.48,3.8 23.72,3.83 34.84,-1.19 13.18,-6 18.53,-28.24 4.9,-36.74"
     class="cls-1" />
  <path
     style="fill:#e83b3b"
     id="path26"
     d="m 230.69056,145.1784 q 10.61,-7.68 21.19,-15.35 a 8.84,8.84 0 0 0 3.36,-7.81 44.89,44.89 0 0 1 0.93,-11.85 42.47,42.47 0 0 1 77.32,-13.819996 43.92,43.92 0 0 1 6.65,24.309996 20.49,20.49 0 0 0 0,3.59 8.48,8.48 0 0 0 3.16,5.45 l 3.13,2.29 14,10.14 q 2,1.47 4.06,3 a 3.56,3.56 0 0 0 3.48,0.65 4,4 0 0 0 2,-2.76 c 2.1,-7.25 3.83,-14.89 4.08,-22.47 0.55,-16.87 -5.27,-33.949996 -15.41,-47.369996 a 76.44,76.44 0 0 0 -127.23,7.83 76.25,76.25 0 0 0 -10.19,36.329996 65.53,65.53 0 0 0 1.28,13.76 c 0.66,3.64 1.51,7.24 2.5,10.83 a 13.89,13.89 0 0 0 0.62,2 3.2,3.2 0 0 0 5,1.26"
     class="cls-2" />
  <path
     style="fill:#456272"
     id="path28"
     d="m 340.48056,138.9384 -25,-18.11 c -4.09,-3 -8.19,-5.94 -12.29,-8.92 a 12.2,12.2 0 0 0 -3.27,-2 7.35,7.35 0 0 0 -6.74,1.25 q -12.57,9.11 -25.14,18.22 l -20.77,15.05 -12.2,8.84 c -2.19,1.58 -3.36,4.73 -1.6,7.13 l 4.41,6 a 10.79,10.79 0 0 0 1.77,2.15 6.24,6.24 0 0 0 6.08,0.95 38.51,38.51 0 0 0 3.5,-1.8 l 15.28,-8 26.08,-13.7 c 1.93,-1 3.73,-2.13 5.94,-2.36 a 9.79,9.79 0 0 1 5.42,0.88 c 0.6,0.32 1.21,0.65 1.82,0.95 l 13.05,6.87 28.33,14.88 3.95,2.08 a 6.13,6.13 0 0 0 7.76,-2 c 1.55,-2.15 3.13,-4.28 4.69,-6.42 a 5.17,5.17 0 0 0 -1,-7.39 q -10,-7.27 -20.05,-14.54"
     class="cls-3" />
</svg>
